HIERARCHY
ROOT Hips
{
	OFFSET 0.000000 100.481300 0.000000
	CHANNELS 6 Xposition Yposition Zposition Xrotation Yrotation Zrotation
	JOINT Spine
	{
		OFFSET -0.279200 12.230698 -2.892100
		CHANNELS 3 Xrotation Yrotation Zrotation
		JOINT Spine1
		{
			OFFSET -0.325700 14.269203 -3.374200
			CHANNELS 3 Xrotation Yrotation Zrotation
			JOINT Spine2
			{
				OFFSET -0.372300 16.307602 -0.352600
				CHANNELS 3 Xrotation Yrotation Zrotation
				JOINT Neck
				{
					OFFSET -0.418800 17.814194 8.416900
					CHANNELS 3 Xrotation Yrotation Zrotation
					JOINT Head
					{
						OFFSET 0.000000 7.031097 3.806800
						CHANNELS 3 Xrotation Yrotation Zrotation
						JOINT HeadTop_End
						{
							OFFSET 0.000000 24.646606 12.978600
							CHANNELS 3 Xrotation Yrotation Zrotation
							End Site
							{
								OFFSET 0.000000 27.854965 0.000000
							}
						}
					}
				}
				JOINT LeftShoulder
				{
					OFFSET 16.952999 14.495407 -7.737500
					CHANNELS 3 Xrotation Yrotation Zrotation
					JOINT LeftArm
					{
						OFFSET 9.308998 -2.777710 0.208600
						CHANNELS 3 Xrotation Yrotation Zrotation
						JOINT LeftForeArm
						{
							OFFSET 29.972298 0.000000 0.000000
							CHANNELS 3 Xrotation Yrotation Zrotation
							JOINT LeftHand
							{
								OFFSET 26.026505 0.000000 0.000000
								CHANNELS 3 Xrotation Yrotation Zrotation
								JOINT LeftHandThumb1
								{
									OFFSET 12.240501 -7.147949 9.207150
									CHANNELS 3 Xrotation Yrotation Zrotation
									JOINT LeftHandThumb2
									{
										OFFSET 4.138618 -2.389435 2.389433
										CHANNELS 3 Xrotation Yrotation Zrotation
										JOINT LeftHandThumb3
										{
											OFFSET 2.726913 -1.574387 1.574386
											CHANNELS 3 Xrotation Yrotation Zrotation
											JOINT LeftHandThumb4
											{
												OFFSET 3.941010 -2.275345 2.275342
												CHANNELS 3 Xrotation Yrotation Zrotation
												End Site
												{
													OFFSET -0.005798 5.087799 0.009903
												}
											}
										}
									}
								}
								JOINT LeftHandIndex1
								{
									OFFSET 24.424698 -1.985611 5.953459
									CHANNELS 3 Xrotation Yrotation Zrotation
									JOINT LeftHandIndex2
									{
										OFFSET 6.426697 0.000000 0.000000
										CHANNELS 3 Xrotation Yrotation Zrotation
										JOINT LeftHandIndex3
										{
											OFFSET 5.337898 0.000000 0.000000
											CHANNELS 3 Xrotation Yrotation Zrotation
											JOINT LeftHandIndex4
											{
												OFFSET 4.409401 0.000000 0.000000
												CHANNELS 3 Xrotation Yrotation Zrotation
												End Site
												{
													OFFSET 0.000000 4.409363 0.014373
												}
											}
										}
									}
								}
								JOINT LeftHandMiddle1
								{
									OFFSET 23.810104 0.000000 0.000000
									CHANNELS 3 Xrotation Yrotation Zrotation
									JOINT LeftHandMiddle2
									{
										OFFSET 7.176498 0.000000 0.000000
										CHANNELS 3 Xrotation Yrotation Zrotation
										JOINT LeftHandMiddle3
										{
											OFFSET 6.774902 0.000000 0.000000
											CHANNELS 3 Xrotation Yrotation Zrotation
											JOINT LeftHandMiddle4
											{
												OFFSET 5.403328 0.000000 0.000000
												CHANNELS 3 Xrotation Yrotation Zrotation
												End Site
												{
													OFFSET -0.027702 5.403244 0.017414
												}
											}
										}
									}
								}
								JOINT LeftHandRing1
								{
									OFFSET 22.908401 -0.839279 -6.020567
									CHANNELS 3 Xrotation Yrotation Zrotation
									JOINT LeftHandRing2
									{
										OFFSET 6.337502 0.000000 0.000000
										CHANNELS 3 Xrotation Yrotation Zrotation
										JOINT LeftHandRing3
										{
											OFFSET 5.779297 0.000000 0.000000
											CHANNELS 3 Xrotation Yrotation Zrotation
											JOINT LeftHandRing4
											{
												OFFSET 4.965698 0.000000 0.000000
												CHANNELS 3 Xrotation Yrotation Zrotation
												End Site
												{
													OFFSET 0.000000 4.965668 0.016186
												}
											}
										}
									}
								}
								JOINT LeftHandPinky1
								{
									OFFSET 20.037003 -1.530319 -10.950146
									CHANNELS 3 Xrotation Yrotation Zrotation
									JOINT LeftHandPinky2
									{
										OFFSET 5.254700 0.000000 0.000000
										CHANNELS 3 Xrotation Yrotation Zrotation
										JOINT LeftHandPinky3
										{
											OFFSET 4.810204 0.000000 0.000000
											CHANNELS 3 Xrotation Yrotation Zrotation
											JOINT LeftHandPinky4
											{
												OFFSET 3.647202 0.000000 0.000000
												CHANNELS 3 Xrotation Yrotation Zrotation
												End Site
												{
													OFFSET 0.000000 3.647186 0.011889
												}
											}
										}
									}
								}
							}
						}
					}
				}
				JOINT RightShoulder
				{
					OFFSET -15.141001 14.495407 -7.737500
					CHANNELS 3 Xrotation Yrotation Zrotation
					JOINT RightArm
					{
						OFFSET -9.308998 -2.777710 0.208500
						CHANNELS 3 Xrotation Yrotation Zrotation
						JOINT RightForeArm
						{
							OFFSET -29.972300 0.000000 0.000000
							CHANNELS 3 Xrotation Yrotation Zrotation
							JOINT RightHand
							{
								OFFSET -26.026505 0.000000 0.000000
								CHANNELS 3 Xrotation Yrotation Zrotation
								JOINT RightHandThumb1
								{
									OFFSET -12.240601 -7.148026 9.207092
									CHANNELS 3 Xrotation Yrotation Zrotation
									JOINT RightHandThumb2
									{
										OFFSET -4.138618 -2.389435 2.389433
										CHANNELS 3 Xrotation Yrotation Zrotation
										JOINT RightHandThumb3
										{
											OFFSET -2.726974 -1.574417 1.574421
											CHANNELS 3 Xrotation Yrotation Zrotation
											JOINT RightHandThumb4
											{
												OFFSET -3.941010 -2.275345 2.275343
												CHANNELS 3 Xrotation Yrotation Zrotation
												End Site
												{
													OFFSET 0.005814 5.087799 0.009927
												}
											}
										}
									}
								}
								JOINT RightHandIndex1
								{
									OFFSET -24.424698 -1.985657 5.953444
									CHANNELS 3 Xrotation Yrotation Zrotation
									JOINT RightHandIndex2
									{
										OFFSET -6.426697 0.000000 0.000000
										CHANNELS 3 Xrotation Yrotation Zrotation
										JOINT RightHandIndex3
										{
											OFFSET -5.337898 0.000000 0.000000
											CHANNELS 3 Xrotation Yrotation Zrotation
											JOINT RightHandIndex4
											{
												OFFSET -4.409401 0.000000 0.000000
												CHANNELS 3 Xrotation Yrotation Zrotation
												End Site
												{
													OFFSET 0.000000 4.409363 0.014408
												}
											}
										}
									}
								}
								JOINT RightHandMiddle1
								{
									OFFSET -23.810097 0.000000 0.000000
									CHANNELS 3 Xrotation Yrotation Zrotation
									JOINT RightHandMiddle2
									{
										OFFSET -7.176498 0.000000 0.000000
										CHANNELS 3 Xrotation Yrotation Zrotation
										JOINT RightHandMiddle3
										{
											OFFSET -6.774902 0.000000 0.000000
											CHANNELS 3 Xrotation Yrotation Zrotation
											JOINT RightHandMiddle4
											{
												OFFSET -5.403328 0.000000 0.000000
												CHANNELS 3 Xrotation Yrotation Zrotation
												End Site
												{
													OFFSET 0.027702 5.403244 0.017457
												}
											}
										}
									}
								}
								JOINT RightHandRing1
								{
									OFFSET -22.908302 -0.839325 -6.020576
									CHANNELS 3 Xrotation Yrotation Zrotation
									JOINT RightHandRing2
									{
										OFFSET -6.337502 0.000000 0.000000
										CHANNELS 3 Xrotation Yrotation Zrotation
										JOINT RightHandRing3
										{
											OFFSET -5.779297 0.000000 0.000000
											CHANNELS 3 Xrotation Yrotation Zrotation
											JOINT RightHandRing4
											{
												OFFSET -4.965698 0.000000 0.000000
												CHANNELS 3 Xrotation Yrotation Zrotation
												End Site
												{
													OFFSET 0.000000 4.965668 0.016226
												}
											}
										}
									}
								}
								JOINT RightHandPinky1
								{
									OFFSET -20.037003 -1.530334 -10.950259
									CHANNELS 3 Xrotation Yrotation Zrotation
									JOINT RightHandPinky2
									{
										OFFSET -5.254700 0.000000 0.000000
										CHANNELS 3 Xrotation Yrotation Zrotation
										JOINT RightHandPinky3
										{
											OFFSET -4.810204 0.000000 0.000000
											CHANNELS 3 Xrotation Yrotation Zrotation
											JOINT RightHandPinky4
											{
												OFFSET -3.647202 0.000000 0.000000
												CHANNELS 3 Xrotation Yrotation Zrotation
												End Site
												{
													OFFSET 0.000000 3.647186 0.011917
												}
											}
										}
									}
								}
							}
						}
					}
				}
			}
		}
	}
	JOINT LeftUpLeg
	{
		OFFSET 15.427100 -6.655098 0.678600
		CHANNELS 3 Xrotation Yrotation Zrotation
		JOINT LeftLeg
		{
			OFFSET 4.081073 -39.591068 13.024000
			CHANNELS 3 Xrotation Yrotation Zrotation
			JOINT LeftFoot
			{
				OFFSET -4.081074 -37.707932 -15.979700
				CHANNELS 3 Xrotation Yrotation Zrotation
				JOINT LeftToeBase
				{
					OFFSET 5.346399 -15.068900 20.645000
					CHANNELS 3 Xrotation Yrotation Zrotation
					JOINT LeftToe_End
					{
						OFFSET 2.754700 0.931300 11.300900
						CHANNELS 3 Xrotation Yrotation Zrotation
						End Site
						{
							OFFSET 0.000000 11.669021 0.000000
						}
					}
				}
			}
		}
	}
	JOINT RightUpLeg
	{
		OFFSET -15.569500 -6.655098 0.678600
		CHANNELS 3 Xrotation Yrotation Zrotation
		JOINT RightLeg
		{
			OFFSET -4.081825 -39.591045 13.023800
			CHANNELS 3 Xrotation Yrotation Zrotation
			JOINT RightFoot
			{
				OFFSET 4.081824 -37.707954 -15.979600
				CHANNELS 3 Xrotation Yrotation Zrotation
				JOINT RightToeBase
				{
					OFFSET -5.346400 -15.068900 20.645000
					CHANNELS 3 Xrotation Yrotation Zrotation
					JOINT RightToe_End
					{
						OFFSET -2.754700 0.931300 11.300900
						CHANNELS 3 Xrotation Yrotation Zrotation
						End Site
						{
							OFFSET 0.000000 11.669021 0.000000
						}
					}
				}
			}
		}
	}
}
MOTION
Frames: 6
Frame Time: 0.033333
12.258180 78.790901 -24.885696 21.893512 -28.190426 0.888614 9.061802 -5.942785 4.694527 3.691503 -4.664533 -0.410623 3.653776 -4.408151 0.223986 -6.594060 3.233855 7.062066 -15.683940 26.251516 -0.409655 0.000001 -0.000000 -0.000000 -8.642033 -9.134026 -6.841218 -14.459384 -19.864191 -52.863694 0.000003 -16.591537 0.000011 -4.674349 9.917539 16.728523 -3.365932 -7.384840 0.257716 10.842443 11.081467 5.995765 -5.630313 5.293277 9.736383 0.000001 0.000000 -0.000000 4.390170 -10.895474 -13.824427 0.380008 2.077412 -20.730237 0.292971 1.831121 -18.178052 0.000000 -0.000001 -0.000002 -0.521215 2.479673 -25.759382 0.356912 2.015377 -20.083533 0.148769 1.313199 -12.926291 -0.000001 -0.000000 -0.000000 2.527772 7.516137 -37.962441 0.441020 2.231854 -22.352802 0.827681 3.003959 -30.802872 -0.000001 0.000001 0.000002 -3.287797 20.880071 -38.071918 0.731979 2.837479 -28.924656 0.524728 2.425302 -24.412990 -0.000003 0.000000 -0.000000 -6.306203 15.477299 1.668460 29.314677 -18.136814 73.268703 0.000011 44.318249 -0.000005 3.995387 -3.108574 -23.721252 -3.624824 11.834637 14.826056 7.173676 -23.408040 -1.062174 -0.264373 -10.348117 -15.785920 -0.000003 0.000002 0.000000 2.658112 6.187029 12.683215 0.180903 -1.286706 16.005128 0.123279 -1.065601 13.198726 -0.000001 -0.000002 -0.000001 0.126223 -3.138923 9.248757 0.411636 -1.916085 24.247288 0.344264 -1.758957 22.146450 0.000001 0.000000 -0.000001 1.513078 -8.192912 15.315268 0.725474 -2.498146 32.382405 0.287478 -1.612504 20.216522 0.000002 0.000001 -0.000001 6.203228 -24.318668 40.141261 0.356007 -1.787512 22.525535 0.362660 -1.803482 22.738325 -0.000001 0.000001 0.000001 -28.436444 12.152584 19.135156 53.454160 -3.369771 7.152928 -40.914824 4.055838 -8.632953 -17.042849 -0.000009 0.000002 0.000001 0.000001 0.000000 -57.918133 -4.530114 -9.797338 42.406599 -7.098776 -8.818550 7.027934 -6.903378 21.063772 -11.975170 0.000032 0.000009 0.000001 0.000001 -0.000001 
11.624395 78.637360 -23.663433 21.965099 -27.336096 -0.057308 9.094555 -5.853972 6.027329 3.619436 -4.697225 0.156043 3.575608 -4.451272 0.792548 -6.706404 3.009708 6.751046 -11.351278 25.133097 -2.194106 0.000001 0.000000 -0.000000 -8.639790 -9.306185 -5.533863 -17.714692 -21.710820 -51.119024 0.000004 -18.868324 -0.000013 0.225828 5.341117 16.327955 -0.798249 -5.803132 -3.114109 11.487230 12.406688 6.590702 -4.145377 11.995832 11.139249 -0.000001 0.000001 -0.000001 4.580550 -10.703626 -17.630115 0.537351 2.452891 -24.709528 0.461707 2.281455 -22.878007 0.000000 0.000000 -0.000002 -0.522445 2.918661 -30.100674 0.535296 2.448426 -24.661592 0.315731 1.899031 -18.877707 -0.000000 -0.000002 0.000005 2.670586 7.620344 -39.279458 0.765603 2.897407 -29.596572 1.125590 3.454244 -36.087769 0.000000 0.000001 -0.000001 -3.363402 21.055767 -37.567683 1.029731 3.318985 -34.465073 0.899371 3.120901 -32.144721 0.000000 -0.000001 0.000003 -6.766292 15.849539 2.007244 28.676747 -17.618487 72.655803 0.000004 44.514505 -0.000005 2.994045 -3.363260 -25.744504 -4.007227 11.954140 14.621336 6.974278 -23.050087 -0.962884 -0.332824 -10.493229 -15.805088 0.000002 0.000002 -0.000002 2.565945 6.185269 11.177768 0.149478 -1.171681 14.540631 0.115414 -1.031427 12.768148 0.000001 -0.000001 -0.000001 0.113014 -3.063918 8.423115 0.398016 -1.885572 23.836527 0.332882 -1.730742 21.772529 -0.000003 -0.000000 0.000001 1.552492 -8.611629 14.498207 0.710794 -2.474891 32.044184 0.273068 -1.572813 19.697784 0.000004 -0.000001 0.000001 5.906996 -24.427806 38.615601 0.347342 -1.766485 22.246257 0.335774 -1.737966 21.868304 -0.000002 0.000003 -0.000001 -29.142156 9.016772 19.270989 56.259271 -4.728522 7.311083 -38.617589 4.734189 -8.133820 -21.583259 0.000005 0.000001 0.000001 0.000000 -0.000000 -55.535763 -5.305104 -9.409632 42.096829 -7.724989 -8.697415 3.057835 -8.232539 21.193063 -9.804998 -0.000015 -0.000002 -0.000000 0.000003 0.000000 
10.520826 78.336632 -21.935680 21.854867 -26.336928 -0.741861 9.084306 -5.819828 7.127243 3.518025 -4.693572 0.789009 3.457891 -4.467764 1.436398 -6.853507 2.837784 6.218706 -6.709003 23.939839 -4.977451 0.000002 -0.000001 0.000000 -8.559088 -9.043078 -3.985183 -20.214409 -22.550766 -48.698286 0.000002 -22.615122 0.000013 2.053014 1.284648 16.562201 1.422778 -4.521548 -6.103288 12.047801 13.556204 7.082478 -2.961900 17.809804 12.177256 -0.000000 0.000001 -0.000001 4.756000 -10.607088 -20.915141 0.693615 2.767002 -28.140029 0.636353 2.657307 -26.930034 0.000001 -0.000001 -0.000002 -0.499824 3.297910 -33.842454 0.716427 2.809155 -28.608597 0.507759 2.387598 -24.008880 -0.000001 0.000002 -0.000001 2.796077 7.707100 -40.414776 1.110995 3.434159 -35.844672 1.414812 3.818873 -40.645363 -0.000001 0.000001 0.000000 -3.431581 21.207092 -37.132009 1.322754 3.709183 -39.243115 1.295166 3.675216 -38.814602 0.000000 -0.000001 0.000001 -7.188314 16.264994 2.177196 26.978440 -15.825825 71.167627 0.000002 44.423936 0.000002 2.409167 -3.110792 -26.947955 -4.339525 12.035070 14.359088 6.779560 -22.680246 -0.903343 -0.404740 -10.614858 -15.820853 -0.000001 0.000001 -0.000004 2.440828 6.185553 9.766981 0.123508 -1.066541 13.210715 0.110618 -1.010061 12.499285 -0.000001 -0.000001 -0.000000 0.104630 -3.011745 7.879956 0.389874 -1.867072 23.588104 0.325613 -1.712420 21.530442 0.000002 -0.000002 -0.000000 1.612904 -9.061229 13.930975 0.703014 -2.462427 31.863478 0.263786 -1.546625 19.356505 0.000001 -0.000001 0.000001 5.519790 -24.504776 37.046444 0.342206 -1.753853 22.078715 0.319640 -1.697248 21.330215 0.000003 0.000001 0.000001 -28.693461 5.025116 19.042829 58.838842 -4.341477 7.413306 -35.703055 6.165631 -9.753021 -28.286416 0.000003 0.000003 0.000001 0.000001 0.000000 -53.081409 -5.849770 -9.263345 42.755608 -8.280693 -8.605764 -1.202881 -9.555416 21.438074 -8.222190 0.000004 -0.000004 -0.000000 -0.000000 0.000000 
8.887498 78.230347 -19.918625 21.698748 -24.914560 -0.803399 8.887688 -5.789270 7.486243 3.314096 -4.581248 1.392441 3.228322 -4.377433 2.064625 -6.696096 2.622385 5.553653 -3.371065 22.229313 -8.148230 -0.000001 -0.000000 0.000000 -8.470902 -8.952364 -2.329702 -21.937304 -22.722718 -44.980935 -0.000003 -26.740804 -0.000008 0.145452 -3.051120 17.603735 2.996314 -3.664797 -8.260683 12.446907 14.372280 7.417994 -2.165906 21.934958 12.821993 -0.000001 -0.000000 -0.000001 4.882359 -10.577739 -23.238996 0.815222 2.982992 -30.564318 0.775580 2.914900 -29.793692 -0.000000 0.000004 0.000001 -0.470477 3.565608 -36.486328 0.859139 3.056020 -31.398079 0.669449 2.721425 -27.635511 0.000000 0.000001 -0.000001 2.886063 7.766610 -41.217016 1.389416 3.789120 -40.262189 1.636255 4.062034 -43.866955 -0.000000 0.000001 0.000002 -3.481415 21.313858 -36.823609 1.548986 3.969468 -42.620671 1.612509 4.037247 -43.530732 -0.000000 0.000003 -0.000002 -7.636005 16.489738 2.528646 24.069172 -14.067359 69.290200 0.000001 43.955887 -0.000003 1.699122 -3.194244 -26.826673 -4.622488 12.081184 14.048815 6.590942 -22.304929 -0.879698 -0.480151 -10.714376 -15.833980 0.000002 -0.000002 -0.000001 2.288345 6.190111 8.454576 0.102217 -0.971418 12.013720 0.108454 -1.000275 12.376153 -0.000001 -0.000003 -0.000002 0.099889 -2.980204 7.589016 0.386436 -1.859153 23.482173 0.321943 -1.703113 21.407454 0.000002 0.000001 -0.000000 1.695221 -9.532825 13.591669 0.701287 -2.459663 31.823579 0.258937 -1.532746 19.175867 0.000003 0.000002 -0.000001 5.059939 -24.546416 35.461243 0.340152 -1.748796 22.011591 0.312595 -1.679107 21.091054 0.000001 0.000002 0.000001 -27.410719 0.857585 18.058812 60.504773 -2.544058 7.176659 -33.279523 6.619588 -10.272036 -28.747033 0.000001 -0.000001 0.000000 -0.000002 -0.000000 -50.815487 -5.977134 -9.536466 44.231783 -8.380561 -8.626766 -4.582296 -11.319646 22.115797 -8.009489 -0.000014 -0.000004 0.000000 0.000001 -0.000000 
7.634170 77.104164 -17.700390 21.617909 -23.874511 -2.348161 8.973732 -4.629786 9.490900 3.233776 -4.029333 2.037093 3.131745 -3.836591 2.734783 -6.659484 2.345131 4.590037 -1.515640 19.468370 -10.261110 -0.000001 -0.000002 0.000001 -8.371569 -9.166355 -0.559304 -24.498608 -22.049560 -40.713651 -0.000003 -30.050384 0.000004 -3.616598 -7.330012 18.575914 3.721983 -3.284470 -9.266602 12.631598 14.749151 7.569138 -1.808025 23.838602 13.096407 -0.000001 0.000000 -0.000000 4.940429 -10.575009 -24.309912 0.874278 3.080658 -31.680828 0.843992 3.031079 -31.112622 0.000000 0.000002 -0.000002 -0.453247 3.688671 -37.703884 0.928883 3.167304 -32.682827 0.750971 2.871531 -29.305927 0.000001 -0.000001 -0.000002 2.926999 7.792560 -41.586450 1.526671 3.945112 -42.297275 1.742767 4.169739 -45.350895 -0.000000 -0.000000 0.000003 -3.504834 21.363000 -36.681418 1.658269 4.084743 -44.176448 1.768496 4.194920 -45.703500 0.000001 0.000000 -0.000001 -8.067571 16.554801 2.879048 21.114176 -12.093092 66.928177 0.000004 43.244038 0.000016 -1.264383 -2.615697 -26.645476 -4.857011 12.096026 13.700321 6.409954 -21.930669 -0.887940 -0.559430 -10.793012 -15.845793 -0.000002 -0.000001 -0.000006 2.114261 6.200078 7.244265 0.084940 -0.886367 10.948007 0.108573 -1.000800 12.382848 0.000001 0.000001 -0.000000 0.098028 -2.966891 7.520214 0.386978 -1.860397 23.498781 0.321449 -1.701853 21.390908 -0.000003 -0.000001 -0.000000 1.800208 -10.017394 13.458427 0.704927 -2.465493 31.907861 0.257932 -1.529897 19.138887 0.000003 -0.000002 -0.000000 4.545898 -24.550963 33.887775 0.340809 -1.750459 22.033622 0.313387 -1.681141 21.117861 0.000001 0.000003 0.000000 -31.054924 -7.489247 17.791156 69.667438 -1.561348 5.623686 -21.857323 5.035054 -10.771338 -30.448823 0.450546 -3.991154 -0.000000 -0.000001 -0.000000 -48.718903 -6.618306 -8.650925 46.472570 -8.141886 -8.659663 -7.896509 -13.651249 23.224887 -8.162698 -0.000001 0.000000 -0.000000 -0.000001 -0.000000 
6.505553 76.289360 -15.451050 21.484280 -23.924370 -2.117869 9.043593 -2.952030 9.399448 3.349319 -2.743156 2.408608 3.228562 -2.549147 3.149714 -6.626212 2.170335 3.435338 -1.945750 16.605177 -10.109657 0.000002 -0.000001 0.000001 -8.276716 -9.277748 1.088673 -26.639835 -21.486011 -35.539284 -0.000000 -32.308328 -0.000001 -7.857994 -10.978375 21.921390 4.033223 -3.124220 -9.700107 12.710933 14.910882 7.633271 -1.656061 24.654999 13.210723 -0.000001 -0.000002 -0.000000 4.965189 -10.575939 -24.769077 0.900178 3.122160 -32.159379 0.874124 3.080409 -31.677970 -0.000002 -0.000001 -0.000001 -0.444389 3.742341 -38.225666 0.959545 3.214517 -33.233525 0.787227 2.935111 -30.021967 -0.000000 -0.000000 0.000001 2.943772 7.802674 -41.744805 1.587167 4.010506 -43.169719 1.789284 4.215048 -45.986964 -0.000001 -0.000001 -0.000001 -3.514950 21.384088 -36.620442 1.706034 4.133222 -44.843351 1.837156 4.260655 -46.634947 0.000002 -0.000000 0.000004 -8.617633 17.023331 3.564947 18.095891 -9.691446 63.631033 0.000001 42.297275 0.000022 -2.687363 -1.408087 -28.679998 -5.044167 12.082999 13.323888 6.238069 -21.564053 -0.924195 -0.641507 -10.852254 -15.854638 0.000001 -0.000004 -0.000002 1.924369 6.216127 6.139757 0.071073 -0.811390 10.011862 0.110689 -1.010386 12.503387 -0.000000 0.000000 0.000001 0.098520 -2.969417 7.643419 0.390855 -1.869303 23.618097 0.323752 -1.707710 21.468142 -0.000001 -0.000000 0.000001 1.928180 -10.505830 13.509316 0.713185 -2.478706 32.099543 0.260346 -1.536820 19.228828 0.000000 -0.000000 0.000000 3.996073 -24.518238 32.354084 0.343880 -1.757991 22.133558 0.321057 -1.700856 21.377700 0.000001 -0.000000 0.000002 -33.622337 -12.235412 16.224923 74.209445 -0.703781 3.448722 -11.229084 1.397304 -8.158818 -42.334602 1.820294 -5.195836 -0.000000 -0.000001 0.000000 -47.198660 -6.567708 -9.059765 48.361414 -7.973617 -8.669952 -10.941162 -14.133974 23.926122 -8.184414 -0.000009 -0.000008 0.000001 -0.000001 -0.000000 
